<svg xmlns="http://www.w3.org/2000/svg" xmlns:xlink="http://www.w3.org/1999/xlink" version="1.1" x="0px" y="0px" viewBox="0 0 60 75" enable-background="new 0 0 60 60" xml:space="preserve"><g><path d="M6,19c0.5522461,0,1-0.4477539,1-1V6c0-0.5522461-0.4477539-1-1-1S5,5.4477539,5,6v12C5,18.5522461,5.4477539,19,6,19z"/><path d="M28.53125,5c-0.5522461,0-1,0.4477539-1,1v12c0,0.5522461,0.4477539,1,1,1s1-0.4477539,1-1V6   C29.53125,5.4477539,29.0834961,5,28.53125,5z"/><path d="M17.265625,19c2.1708984,0,3.9375-1.7666016,3.9375-3.9375v-6.125c0-2.1708984-1.7666016-3.9375-3.9375-3.9375   s-3.9375,1.7666016-3.9375,3.9375v6.125C13.328125,17.2333984,15.0947266,19,17.265625,19z M15.328125,8.9375   c0-1.0683594,0.8691406-1.9375,1.9375-1.9375s1.9375,0.8691406,1.9375,1.9375v6.125c0,1.0683594-0.8691406,1.9375-1.9375,1.9375   s-1.9375-0.8691406-1.9375-1.9375V8.9375z"/><path d="M51.0624962,5C48.8916016,5,47.125,6.7666016,47.125,8.9375v6.125c0,2.1708984,1.7666016,3.9375,3.9374962,3.9375   C53.2333984,19,55,17.2333984,55,15.0625v-6.125C55,6.7666016,53.2333984,5,51.0624962,5z M53,15.0625   C53,16.1308594,52.1308594,17,51.0624962,17C49.9941406,17,49.125,16.1308594,49.125,15.0625v-6.125   C49.125,7.8691406,49.9941406,7,51.0624962,7C52.1308594,7,53,7.8691406,53,8.9375V15.0625z"/><path d="M39.796875,19c2.1708984,0,3.9375-1.7666016,3.9375-3.9375v-6.125c0-2.1708984-1.7666016-3.9375-3.9375-3.9375   s-3.9375,1.7666016-3.9375,3.9375v6.125C35.859375,17.2333984,37.6259766,19,39.796875,19z M37.859375,8.9375   c0-1.0683594,0.8691406-1.9375,1.9375-1.9375s1.9375,0.8691406,1.9375,1.9375v6.125c0,1.0683594-0.8691406,1.9375-1.9375,1.9375   s-1.9375-0.8691406-1.9375-1.9375V8.9375z"/><path d="M54,23c-0.5522461,0-1,0.4477539-1,1v12c0,0.5522461,0.4477539,1,1,1s1-0.4477539,1-1V24   C55,23.4477539,54.5522461,23,54,23z"/><path d="M31.46875,23c-0.5522461,0-1,0.4477539-1,1v12c0,0.5522461,0.4477539,1,1,1s1-0.4477539,1-1V24   C32.46875,23.4477539,32.0209961,23,31.46875,23z"/><path d="M42.734375,23c-2.1708984,0-3.9375,1.7666016-3.9375,3.9375v6.125c0,2.1708984,1.7666016,3.9375,3.9375,3.9375   s3.9375-1.7666016,3.9375-3.9375v-6.125C46.671875,24.7666016,44.9052734,23,42.734375,23z M44.671875,33.0625   c0,1.0683594-0.8691406,1.9375-1.9375,1.9375s-1.9375-0.8691406-1.9375-1.9375v-6.125c0-1.0683594,0.8691406-1.9375,1.9375-1.9375   s1.9375,0.8691406,1.9375,1.9375V33.0625z"/><path d="M8.9374971,23C6.7666016,23,5,24.7666016,5,26.9375v6.125C5,35.2333984,6.7666016,37,8.9374971,37   C11.1083984,37,12.875,35.2333984,12.875,33.0625v-6.125C12.875,24.7666016,11.1083984,23,8.9374971,23z M10.875,33.0625   C10.875,34.1308594,10.0058594,35,8.9374971,35C7.8691406,35,7,34.1308594,7,33.0625v-6.125   C7,25.8691406,7.8691406,25,8.9374971,25C10.0058594,25,10.875,25.8691406,10.875,26.9375V33.0625z"/><path d="M20.203125,23c-2.1708984,0-3.9375,1.7666016-3.9375,3.9375v6.125c0,2.1708984,1.7666016,3.9375,3.9375,3.9375   s3.9375-1.7666016,3.9375-3.9375v-6.125C24.140625,24.7666016,22.3740234,23,20.203125,23z M22.140625,33.0625   c0,1.0683594-0.8691406,1.9375-1.9375,1.9375s-1.9375-0.8691406-1.9375-1.9375v-6.125c0-1.0683594,0.8691406-1.9375,1.9375-1.9375   s1.9375,0.8691406,1.9375,1.9375V33.0625z"/><path d="M6,41c-0.5522461,0-1,0.4477539-1,1v12c0,0.5522461,0.4477539,1,1,1s1-0.4477539,1-1V42C7,41.4477539,6.5522461,41,6,41z"/><path d="M28.53125,41c-0.5522461,0-1,0.4477539-1,1v12c0,0.5522461,0.4477539,1,1,1s1-0.4477539,1-1V42   C29.53125,41.4477539,29.0834961,41,28.53125,41z"/><path d="M17.265625,41c-2.1708984,0-3.9375,1.7666016-3.9375,3.9375v6.125c0,2.1708984,1.7666016,3.9375,3.9375,3.9375   s3.9375-1.7666016,3.9375-3.9375v-6.125C21.203125,42.7666016,19.4365234,41,17.265625,41z M19.203125,51.0625   c0,1.0683594-0.8691406,1.9375-1.9375,1.9375s-1.9375-0.8691406-1.9375-1.9375v-6.125c0-1.0683594,0.8691406-1.9375,1.9375-1.9375   s1.9375,0.8691406,1.9375,1.9375V51.0625z"/><path d="M51.0624962,41C48.8916016,41,47.125,42.7666016,47.125,44.9375v6.125c0,2.1708984,1.7666016,3.9375,3.9374962,3.9375   C53.2333984,55,55,53.2333984,55,51.0625v-6.125C55,42.7666016,53.2333984,41,51.0624962,41z M53,51.0625   C53,52.1308594,52.1308594,53,51.0624962,53C49.9941406,53,49.125,52.1308594,49.125,51.0625v-6.125   c0-1.0683594,0.8691406-1.9375,1.9374962-1.9375C52.1308594,43,53,43.8691406,53,44.9375V51.0625z"/><path d="M39.796875,41c-2.1708984,0-3.9375,1.7666016-3.9375,3.9375v6.125c0,2.1708984,1.7666016,3.9375,3.9375,3.9375   s3.9375-1.7666016,3.9375-3.9375v-6.125C43.734375,42.7666016,41.9677734,41,39.796875,41z M41.734375,51.0625   c0,1.0683594-0.8691406,1.9375-1.9375,1.9375s-1.9375-0.8691406-1.9375-1.9375v-6.125c0-1.0683594,0.8691406-1.9375,1.9375-1.9375   s1.9375,0.8691406,1.9375,1.9375V51.0625z"/></g><text x="0" y="75" fill="#000000" font-size="5px" font-weight="bold" font-family="'Helvetica Neue', Helvetica, Arial-Unicode, Arial, Sans-serif">Created by Vectorstall</text><text x="0" y="80" fill="#000000" font-size="5px" font-weight="bold" font-family="'Helvetica Neue', Helvetica, Arial-Unicode, Arial, Sans-serif">from the Noun Project</text></svg>
